<?xml version="1.0" encoding="UTF-8"?>
<svg xmlns="http://www.w3.org/2000/svg" xmlns:xlink="http://www.w3.org/1999/xlink" width="512pt" height="512pt" viewBox="0 0 512 512" version="1.1">
<g id="surface1">
<path style=" stroke:none;fill-rule:nonzero;fill:rgb(100%,100%,100%);fill-opacity:1;" d="M 460.800781 25.601562 C 432.578125 25.550781 409.660156 48.386719 409.609375 76.605469 C 409.585938 89.90625 414.75 102.695312 424.003906 112.246094 L 330.460938 299.300781 C 328.410156 298.960938 326.34375 298.746094 324.265625 298.667969 C 317.65625 298.679688 311.113281 299.980469 305 302.492188 L 232.378906 220.828125 C 236.617188 213.332031 238.875 204.878906 238.933594 196.269531 C 238.933594 167.992188 216.011719 145.066406 187.734375 145.066406 C 159.457031 145.066406 136.535156 167.992188 136.535156 196.269531 C 136.585938 208.488281 141.046875 220.28125 149.09375 229.480469 L 60.347656 384.921875 C 57.332031 384.34375 54.269531 384.03125 51.199219 384 C 22.921875 384 0 406.921875 0 435.199219 C 0 463.476562 22.921875 486.398438 51.199219 486.398438 C 79.476562 486.398438 102.398438 463.476562 102.398438 435.199219 C 102.351562 422.976562 97.890625 411.183594 89.839844 401.988281 L 178.585938 246.546875 C 188.113281 248.425781 197.984375 247.417969 206.933594 243.644531 L 279.554688 325.308594 C 275.339844 332.808594 273.105469 341.261719 273.066406 349.867188 C 272.984375 378.144531 295.835938 401.136719 324.113281 401.222656 C 352.390625 401.304688 375.382812 378.453125 375.46875 350.175781 C 375.507812 336.835938 370.339844 324.007812 361.0625 314.421875 L 454.605469 127.367188 C 456.65625 127.710938 458.722656 127.921875 460.800781 128 C 489.078125 128 512 105.078125 512 76.800781 C 512 48.523438 489.078125 25.601562 460.800781 25.601562 Z M 51.199219 452.265625 C 41.773438 452.265625 34.132812 444.625 34.132812 435.199219 C 34.132812 425.773438 41.773438 418.132812 51.199219 418.132812 C 60.625 418.132812 68.265625 425.773438 68.265625 435.199219 C 68.265625 444.625 60.625 452.265625 51.199219 452.265625 Z M 187.734375 213.332031 C 178.308594 213.332031 170.664062 205.691406 170.664062 196.265625 C 170.664062 186.839844 178.308594 179.199219 187.734375 179.199219 C 197.160156 179.199219 204.800781 186.839844 204.800781 196.265625 C 204.800781 205.691406 197.160156 213.332031 187.734375 213.332031 Z M 324.265625 366.933594 C 314.839844 366.933594 307.199219 359.292969 307.199219 349.867188 C 307.199219 340.441406 314.839844 332.800781 324.265625 332.800781 C 333.691406 332.800781 341.335938 340.441406 341.335938 349.867188 C 341.332031 359.292969 333.691406 366.933594 324.265625 366.933594 Z M 460.800781 93.867188 C 451.375 93.867188 443.734375 86.226562 443.734375 76.800781 C 443.734375 67.375 451.375 59.734375 460.800781 59.734375 C 470.226562 59.734375 477.867188 67.375 477.867188 76.800781 C 477.867188 86.226562 470.226562 93.867188 460.800781 93.867188 Z M 460.800781 93.867188 "/>
</g>
</svg>
